<svg width="62" height="62" viewBox="0 0 62 62" fill="none" xmlns="http://www.w3.org/2000/svg">
<circle cx="31" cy="31" r="31" fill="#FF781B"/>
<path d="M36.3105 32.9355C37.5866 32.9355 38.9766 33.1178 40.4805 33.4824C41.9844 33.847 43.3743 34.4395 44.6504 35.2598C45.9264 36.0801 46.5645 37.0143 46.5645 38.0625V41.6855H37.8145V38.0625C37.8145 36.0573 36.8574 34.3711 34.9434 33.0039C35.2624 32.9583 35.7181 32.9355 36.3105 32.9355ZM20.5195 33.4824C22.0234 33.1178 23.4134 32.9355 24.6895 32.9355C25.9655 32.9355 27.3555 33.1178 28.8594 33.4824C30.3633 33.847 31.7305 34.4395 32.9609 35.2598C34.237 36.0801 34.875 37.0143 34.875 38.0625V41.6855H14.4355V38.0625C14.4355 37.0143 15.0736 36.0801 16.3496 35.2598C17.6257 34.4395 19.0156 33.847 20.5195 33.4824ZM27.6973 28.7656C26.877 29.6315 25.8743 30.0645 24.6895 30.0645C23.5046 30.0645 22.4792 29.6315 21.6133 28.7656C20.7474 27.8997 20.3145 26.8743 20.3145 25.6895C20.3145 24.5046 20.7474 23.4792 21.6133 22.6133C22.4792 21.7474 23.5046 21.3145 24.6895 21.3145C25.8743 21.3145 26.877 21.7474 27.6973 22.6133C28.5632 23.4792 28.9961 24.5046 28.9961 25.6895C28.9961 26.8743 28.5632 27.8997 27.6973 28.7656ZM39.3867 28.7656C38.5208 29.6315 37.4954 30.0645 36.3105 30.0645C35.1257 30.0645 34.1003 29.6315 33.2344 28.7656C32.3685 27.8997 31.9355 26.8743 31.9355 25.6895C31.9355 24.5046 32.3685 23.4792 33.2344 22.6133C34.1003 21.7474 35.1257 21.3145 36.3105 21.3145C37.4954 21.3145 38.5208 21.7474 39.3867 22.6133C40.2526 23.4792 40.6855 24.5046 40.6855 25.6895C40.6855 26.8743 40.2526 27.8997 39.3867 28.7656Z" fill="white"/>
</svg>
