<svg width="62" height="62" viewBox="0 0 62 62" fill="none" xmlns="http://www.w3.org/2000/svg">
<circle cx="31" cy="31" r="31" fill="#FF781B"/>
<path d="M32.252 25.6895V31.8418L37.3105 34.918L36.2852 36.6953L30.0645 32.9355V25.6895H32.252ZM44.625 28.7656H34.7129L38.7461 24.6641C36.7409 22.6589 34.3255 21.6562 31.5 21.6562C28.7201 21.6107 26.3275 22.5677 24.3223 24.5273C23.502 25.3477 22.7956 26.4642 22.2031 27.877C21.6107 29.2441 21.3145 30.4974 21.3145 31.6367C21.3145 32.776 21.6107 34.0521 22.2031 35.4648C22.7956 36.832 23.502 37.9258 24.3223 38.7461C25.1426 39.5664 26.2591 40.2728 27.6719 40.8652C29.0846 41.4577 30.3607 41.7539 31.5 41.7539C32.6393 41.7539 33.9154 41.4577 35.3281 40.8652C36.7865 40.2728 37.9258 39.5664 38.7461 38.7461C40.7057 36.7865 41.6855 34.4167 41.6855 31.6367H44.625C44.625 35.237 43.349 38.2904 40.7969 40.7969C38.2448 43.349 35.1458 44.625 31.5 44.625C27.8542 44.625 24.7552 43.349 22.2031 40.7969C19.651 38.2904 18.375 35.2598 18.375 31.7051C18.375 28.1048 19.651 25.0286 22.2031 22.4766C23.2513 21.4284 24.6641 20.5397 26.4414 19.8105C28.2643 19.0358 29.9277 18.6484 31.4316 18.6484C32.9355 18.6484 34.5762 19.0358 36.3535 19.8105C38.1764 20.5397 39.612 21.4284 40.6602 22.4766L44.625 18.375V28.7656Z" fill="white"/>
</svg>
